#!OML:ASF F:\VICON\USERDATA\INSTALL\rory3\rory3.ASF
:FULLY-SPECIFIED
:DEGREES
168
root 0.5493424401792446 17.689058042127 39.355191967590365 1.7555170118786547 1.2525159302136757 -0.006372318836316948
lfemur -18.091149714486612 1.3924778098142268 -20.21671884450107
ltibia 58.490560143341085
lfoot 4.6812135325576625 -9.843600965724834
ltoes -8.398692702494516
rfemur -23.42711430500328 3.13836628978125 27.38842857744208
rtibia 50.531345773159956
rfoot -2.29323428669047 -5.883980888599551
rtoes -4.1292600124407475
lowerback 12.938509428166466 -0.5334396705958108 -0.15562485100833334
upperback -0.4908449037201361 0.7266965587711337 1.6487195261585377
thorax -8.263109715010312 0.806367442139062 1.3707389393911649
lowerneck -18.97456986505007 -3.6703061868143765 -2.305496980965702
upperneck 13.970539922073078 -4.917947940045824 2.818038241075414
head 7.479325924921674 -2.2605689441429884 0.7544236276088359
lclavicle 3.0724827264545893e-16 -4.3067221206564905e-16
lhumerus -44.01353999127484 -14.912182458648397 98.30660838707414
lradius 109.96979727806102
lwrist 32.17712612359461
lhand -25.74958459159204 2.9933909662387608
lfingers 7.125020000000001
lthumb 0.5195984803791264 32.614160199196846
rclavicle 3.0728743657241976e-16 -4.3064985682852227e-16
rhumerus -49.585623343840815 6.979541927343799 -96.09656540013523
rradius 104.11375748314651
rwrist -19.414641814305806
rhand -18.486955133083047 37.4194959875056
rfingers 7.125020000000001
rthumb 7.99390685099078 7.598854789389551
169
root 0.5473024131127086 17.675029838701782 39.70135497858017 1.8248293729238076 1.2895417327620735 0.04405633572360301
lfemur -19.663599206611185 1.3029341546597117 -20.29154237241702
ltibia 59.431385427125804
lfoot 3.2032954654472694 -10.588759475815484
ltoes -7.957218996692773
rfemur -22.50896803437166 3.422779570500662 27.788008509781008
rtibia 50.25042467220753
rfoot -3.285153069409111 -6.335436631859602
rtoes -4.386421702770093
lowerback 13.064323379593128 -0.4296346688867775 0.18356426970173745
upperback -0.4777814391794508 0.8750740469524543 1.7256720415801323
thorax -8.240480318849482 0.7990777705545498 1.2643962246802585
lowerneck -18.89664981871622 -3.658822422659229 -2.2801962517373187
upperneck 13.925036475147271 -4.929409987915707 2.825601350684404
head 7.478352833497909 -2.2428719383991083 0.7653051233236072
lclavicle 3.0724827264545893e-16 -4.3067221206564905e-16
lhumerus -44.77570242227807 -15.081576792641568 98.27628566759246
lradius 109.8974835094919
lwrist 32.20109622763726
lhand -25.709803780394758 3.024642715284255
lfingers 7.125020000000001
lthumb 0.594435627616439 32.745479646643766
rclavicle 3.0728743657241976e-16 -4.3064985682852227e-16
rhumerus -49.30810861793722 6.935360848717118 -96.0046540816171
rradius 103.95604176915505
rwrist -19.326218504677406
rhand -18.4725182070569 37.45641847005562
rfingers 7.125020000000001
rthumb 7.9858131171374245 7.6269873980606935
170
root 0.5421450749855692 17.649885682305495 39.34220256251097 1.77157834506412 1.1949915002858964 -0.03343448917949643
lfemur -19.344186052766563 1.5701267163441308 -19.54831452917981
ltibia 60.28577637037999
lfoot 2.2991714821424147 -11.259620559348502
ltoes -7.615663998213662
rfemur -21.129546413891454 3.628452409875468 28.031993635085087
rtibia 50.18090308138566
rfoot -4.9389736607736 -7.154800406834623
rtoes -4.305725723233985
lowerback 13.097936241537392 -0.39327267921660003 0.26772575268669363
upperback -0.5081243811211803 0.9078213346894181 1.755739793617598
thorax -8.156540255388947 0.9070081881396409 1.3762933873921726
lowerneck -18.86132870868132 -3.70751441705382 -2.273888569296298
upperneck 13.86329488784717 -4.990820697301344 2.826078480968966
head 7.4607172975624385 -2.239738463749679 0.7612958064151921
lclavicle 3.0724827264545893e-16 -4.3067221206564905e-16
lhumerus -44.57369879269563 -14.668055060600345 98.44967365620963
lradius 109.79532734796969
lwrist 32.17806292819559
lhand -25.725997335962763 3.076487917065972
lfingers 7.125020000000001
lthumb 0.6369614141420052 32.769394975462994
rclavicle 3.0728743657241976e-16 -4.3064985682852227e-16
rhumerus -49.26377108922274 6.865745952599729 -95.95208473003933
rradius 103.82603566061621
rwrist -19.290262224006174
rhand -18.486380799835096 37.49500210319159
rfingers 7.125020000000001
rthumb 7.960950383072653 7.56236324976217
171
root 0.5505819591907632 17.67619762956495 40.37326405742889 1.9141066695042004 1.3869107780532157 0.07027688451111191
lfemur -20.968515370412096 1.41172194026361 -20.11347591328946
ltibia 60.74606406383112
lfoot 2.7460548753715965 -10.564495493112291
ltoes -7.2312248904784
rfemur -18.564607401627875 4.059328386634965 28.52481716620283
rtibia 49.76373272821811
rfoot -5.311893811454924 -7.254097997360551
rtoes -4.545704724787759
lowerback 13.270802873446296 -0.2273557736119044 0.5960513939617745
upperback -0.5390055307768596 0.9473492381023891 1.7606240340935153
thorax -8.203472543726258 0.9276626860512497 1.3698342775130028
lowerneck -18.81573084553685 -3.723335390497519 -2.246752853568857
upperneck 13.839929343517591 -5.0183031785648495 2.8561928221735022
head 7.445967797016082 -2.2585646560512442 0.7507840503044403
lclavicle 3.0724827264545893e-16 -4.3067221206564905e-16
lhumerus -45.16669593779105 -14.715651404625389 98.42814877841529
lradius 109.82959938806452
lwrist 32.33058105728062
lhand -25.70408527835377 3.143340790126847
lfingers 7.125020000000001
lthumb 0.6863415108894965 32.84826152374583
rclavicle 3.0728743657241976e-16 -4.3064985682852227e-16
rhumerus -48.786744902878816 6.904212401865722 -95.83215640694458
rradius 103.71013535646385
rwrist -19.343823989534606
rhand -18.478713772063568 37.51478022409068
rfingers 7.125020000000001
rthumb 7.970356478636653 7.534611099425918
172
root 0.5496173217417355 17.669873515800806 40.55066609683531 1.9150267929985267 1.3737954672177273 0.08931855758954987
lfemur -22.085332488409872 1.1866418261525058 -20.315627753020074
ltibia 60.54426431711154
lfoot 3.9442647930913397 -9.880190130600516
ltoes -6.943931056922074
rfemur -19.933820532488163 3.798851628508281 28.405539652595465
rtibia 49.23902003422053
rfoot -5.064443028873468 -6.853536503540927
rtoes -5.425292053328054
lowerback 13.328818858927239 -0.1534810697817467 0.7279615986928571
upperback -0.5263712211156686 1.1022004522089222 1.815358412311236
thorax -8.312509797446861 0.7860934287682427 0.859817803179842
lowerneck -18.85006364674746 -3.808203978053324 -2.2409821867460504
upperneck 13.810705691237075 -5.088122250603076 2.857792771014877
head 7.425433875261051 -2.303132009245192 0.7331139454616533
lclavicle 3.0724827264545893e-16 -4.3067221206564905e-16
lhumerus -44.66697471386656 -14.2610416154474 98.54680060289442
lradius 109.87607607968938
lwrist 32.35191679917437
lhand -25.76629451725444 3.123757473969593
lfingers 7.125020000000001
lthumb 0.6842124216373385 32.83128081203697
rclavicle 3.0728743657241976e-16 -4.3064985682852227e-16
rhumerus -48.77866582495866 6.850936933229241 -95.81783063676252
rradius 103.78351056412939
rwrist -19.453067860896063
rhand -18.510616505071397 37.4834939109698
rfingers 7.125020000000001
rthumb 7.939869822669812 7.490941555396964
173
root 0.5416199694894107 17.660444188465643 39.672968820573416 1.9179260676180347 1.2409022953320803 -0.004668634726775478
lfemur -22.62461087946252 1.148980300973789 -20.172403612158647
ltibia 60.07320408546572
lfoot 4.110373454861373 -9.924066249989108
ltoes -6.650651433531859
rfemur -16.353030537451957 4.28832231611576 29.42913389851593
rtibia 49.024742123495365
rfoot -4.864695059681389 -6.382933156144093
rtoes -6.078096347770813
lowerback 13.400261758305389 -0.06386535644431568 0.9249248867969875
upperback -0.5314323503824276 1.1593150340873914 1.811940275813789
thorax -8.286137138805453 0.864799964738677 0.7962317326770969
lowerneck -18.791631525016406 -3.82512179553691 -2.210846294176688
upperneck 13.829286090836376 -5.127328124272425 2.8609826106337803
head 7.422905133788043 -2.313683211202925 0.7349076027023673
lclavicle 3.0724827264545893e-16 -4.3067221206564905e-16
lhumerus -44.14653198905727 -14.075572356522237 98.55383834850723
lradius 109.92590611470155
lwrist 32.291909869743876
lhand -25.76291011023762 3.074852365976301
lfingers 7.125020000000001
lthumb 0.6556675391780057 32.81198778393287
rclavicle 3.0728743657241976e-16 -4.3064985682852227e-16
rhumerus -48.34024298942747 6.884928108348572 -95.74974122279572
rradius 103.88642108106005
rwrist -19.520261033792593
rhand -18.476355898754996 37.4822471654806
rfingers 7.125020000000001
rthumb 7.954816229459133 7.4720829695491915
174
root 0.5472051622734639 17.673519249562535 39.845834023640954 1.9774219651061582 1.2314729052548445 0.0837221734733089
lfemur -22.577296061063212 1.1057496107271643 -20.523603317768806
ltibia 59.6499820838484
lfoot 3.6661598005309073 -10.125667473881215
ltoes -6.761382500627297
rfemur -17.194311859001775 3.9714445391587554 29.145620415217373
rtibia 49.09630151751699
rfoot -3.95043964677166 -5.70037278906104
rtoes -4.534077193879819
lowerback 13.42691556420052 -0.035035305458954835 0.9687972846782026
upperback -0.5038241240616752 1.2969873204980402 1.8425669356313303
thorax -8.415389873451412 0.6701891681314618 0.1435213518259209
lowerneck -18.796873519678805 -3.947629342693962 -2.228194773121545
upperneck 13.912754300362712 -5.155199375195331 2.8705410524723565
head 7.4128961858104825 -2.346967456325831 0.7250945077618234
lclavicle 3.0724827264545893e-16 -4.3067221206564905e-16
lhumerus -45.269280551472946 -14.08992664289711 98.41688145328283
lradius 109.59902982773174
lwrist 32.327614463586755
lhand -25.78341490321779 3.0458232753705463
lfingers 7.125020000000001
lthumb 0.6367787901210408 32.73346589237891
rclavicle 3.0728743657241976e-16 -4.3064985682852227e-16
rhumerus -48.13433685932036 6.897633189995421 -95.76951644251211
rradius 103.83368427277351
rwrist -19.473224582425413
rhand -18.47834161030036 37.51725574411384
rfingers 7.125020000000001
rthumb 7.940405802721746 7.467237081063649
175
root 0.5711820532670077 17.755066756934212 42.17449453252404 2.177881996367962 1.622404207115795 0.23171301936439592
lfemur -21.30960126720086 1.1589971536459802 -20.334607659609294
ltibia 59.146388517145546
lfoot 4.016810438875302 -9.837064582190035
ltoes -7.530521692116453
rfemur -18.776337440053684 3.6983788308642858 28.74408798973993
rtibia 49.33498228695181
rfoot -3.9816610913167207 -5.710920036635819
rtoes -4.1171836840078475
lowerback 13.489229403048572 0.04634231549898371 1.082401656305112
upperback -0.5055307301000102 1.387572685899189 1.8245702077293613
thorax -8.231288895886248 0.8883132578308933 0.44961192698223873
lowerneck -18.71684884413018 -4.035491548947135 -2.2174956359791476
upperneck 13.937543067822215 -5.247559043695668 2.8337155139377916
head 7.415353056998375 -2.368982296679196 0.7173153941412227
lclavicle 3.0724827264545893e-16 -4.3067221206564905e-16
lhumerus -46.22595515065422 -14.163789871862514 98.33862219523053
lradius 109.47102797955289
lwrist 32.268007086494926
lhand -25.80268996356264 3.027757814359844
lfingers 7.125020000000001
lthumb 0.5625218228587525 32.64537944771452
rclavicle 3.0728743657241976e-16 -4.3064985682852227e-16
rhumerus -47.24840341405865 7.064614024809957 -95.68251987242336
rradius 103.78959294558825
rwrist -19.348704060225746
rhand -18.424209435091292 37.60139168824615
rfingers 7.125020000000001
rthumb 7.984140182016252 7.512765653954134
